<svg width="21" height="21" viewBox="0 0 21 21" fill="none" xmlns="http://www.w3.org/2000/svg">
<path fill-rule="evenodd" clip-rule="evenodd" d="M5.91677 0.723234C6.98187 0.683786 8.35595 0.664062 10.0391 0.664062C11.7222 0.664062 13.0963 0.683786 14.1614 0.723234C15.0687 0.762682 15.8773 0.920471 16.5874 1.19661C17.2711 1.45959 17.8629 1.84092 18.3625 2.34059C18.8622 2.84026 19.2435 3.43197 19.5065 4.11574C19.7827 4.8258 19.9404 5.63447 19.9799 6.54177C20.0193 7.60687 20.0391 8.98095 20.0391 10.6641C20.0391 12.3472 20.0193 13.7213 19.9799 14.7864C19.9404 15.6937 19.7827 16.5023 19.5065 17.2124C19.2435 17.8961 18.8622 18.4879 18.3625 18.9875C17.8629 19.4872 17.2711 19.8685 16.5874 20.1315C15.8773 20.4077 15.0687 20.5654 14.1614 20.6049C13.0963 20.6443 11.7222 20.6641 10.0391 20.6641C8.35595 20.6641 6.98187 20.6443 5.91677 20.6049C5.00947 20.5654 4.2008 20.4077 3.49074 20.1315C2.80697 19.8685 2.21526 19.4872 1.71559 18.9875C1.21592 18.4879 0.834593 17.8961 0.571607 17.2124C0.295471 16.5023 0.137682 15.6937 0.0982341 14.7864C0.0587862 13.7213 0.0390625 12.3472 0.0390625 10.6641C0.0390625 8.98095 0.0587862 7.60687 0.0982341 6.54177C0.137682 5.63447 0.295471 4.8258 0.571607 4.11574C0.834593 3.43197 1.21592 2.84026 1.71559 2.34059C2.21526 1.84092 2.80697 1.45959 3.49074 1.19661C4.2008 0.920471 5.00947 0.762682 5.91677 0.723234ZM14.3191 2.02501C13.2146 1.98556 11.7879 1.96584 10.0391 1.96584C8.2902 1.96584 6.86353 1.98556 5.75898 2.02501C5.04892 2.05131 4.39147 2.17622 3.7866 2.39976C2.83985 2.79424 2.16924 3.46485 1.77476 4.4116C1.55122 5.01647 1.42631 5.67392 1.40001 6.38398C1.36056 7.48853 1.34084 8.9152 1.34084 10.6641C1.34084 12.4129 1.36056 13.8396 1.40001 14.9441C1.42631 15.6542 1.55122 16.3117 1.77476 16.9165C2.16924 17.8633 2.83985 18.5339 3.7866 18.9284C4.39147 19.1519 5.04892 19.2768 5.75898 19.3031C6.86353 19.3426 8.2902 19.3623 10.0391 19.3623C11.7879 19.3623 13.2146 19.3426 14.3191 19.3031C15.0292 19.2768 15.6867 19.1519 16.2915 18.9284C17.2383 18.5339 17.9089 17.8633 18.3034 16.9165C18.5269 16.3117 18.6518 15.6542 18.6781 14.9441C18.7176 13.8396 18.7373 12.4129 18.7373 10.6641C18.7373 8.9152 18.7176 7.48853 18.6781 6.38398C18.6518 5.67392 18.5269 5.01647 18.3034 4.4116C17.9089 3.46485 17.2383 2.79424 16.2915 2.39976C15.6867 2.17622 15.0292 2.05131 14.3191 2.02501ZM7.19883 13.5043C7.98778 14.2801 8.93452 14.668 10.0391 14.668C11.1436 14.668 12.0871 14.2768 12.8694 13.4944C13.6518 12.7121 14.043 11.7686 14.043 10.6641C14.043 9.55952 13.6518 8.61607 12.8694 7.83369C12.0871 7.0513 11.1436 6.66012 10.0391 6.66012C8.93452 6.66012 7.99107 7.0513 7.20869 7.83369C6.4263 8.61607 6.03512 9.55952 6.03512 10.6641C6.03512 11.7686 6.42302 12.7153 7.19883 13.5043ZM6.40987 7.03487C7.40922 6.03552 8.61894 5.53586 10.0391 5.53586C11.4592 5.53586 12.6689 6.03552 13.6683 7.03487C14.6676 8.03422 15.1673 9.24394 15.1673 10.6641C15.1673 12.0842 14.6676 13.2939 13.6683 14.2933C12.6689 15.2926 11.4592 15.7923 10.0391 15.7923C8.61894 15.7923 7.40922 15.2926 6.40987 14.2933C5.41052 13.2939 4.91086 12.0842 4.91086 10.6641C4.91086 9.24394 5.41052 8.03422 6.40987 7.03487ZM16.2126 4.49049C16.4625 4.72718 16.5874 5.00989 16.5874 5.33862C16.5874 5.66735 16.469 5.94677 16.2324 6.17688C15.9957 6.407 15.7064 6.52205 15.3645 6.52205C15.0358 6.52205 14.7564 6.407 14.5262 6.17688C14.2961 5.94677 14.1811 5.66735 14.1811 5.33862C14.1811 4.99674 14.2961 4.70746 14.5262 4.47077C14.7564 4.23408 15.0358 4.11574 15.3645 4.11574C15.6932 4.11574 15.9759 4.24066 16.2126 4.49049Z" fill="#402211"/>
</svg>
