<svg width="209" height="64" viewBox="0 0 209 64" fill="none" xmlns="http://www.w3.org/2000/svg">
<path d="M24.0189 64L23.7926 63.9245C2.30008 55.8113 0.0754124 43.1698 0 42.6038V42.5283V6.79245C0 0.566038 21.9073 0.0377358 24.3959 0C45.2474 0 47.8869 6.33962 47.9623 6.60377L48 6.83019V42.6415C47.9246 43.1698 45.6999 55.8113 24.2074 63.9623L24.0189 64Z" fill="#402211"/>
<path d="M1.20659 42.4528C1.35742 43.2453 3.99685 55.0566 24.0188 62.717C44.0785 55.0566 46.6803 43.2453 46.8311 42.4528V6.94337C46.454 6.26412 42.9474 1.20752 24.4336 1.20752C15.4595 1.32073 1.20659 2.9811 1.20659 6.79243V42.4528Z" fill="white"/>
<path d="M34.4258 48.3395H28.4305V37.9999H19.5695V48.3395H13.6119V19.9622H19.5695V31.9999H28.4682V19.9622H34.4258V48.3395Z" fill="#402211"/>
<path d="M34.4258 48.3395H28.4305V37.9999H19.5695V48.3395H13.6119V19.9622H19.5695V31.9999H28.4682V19.9622H34.4258V48.3395Z" fill="#402211"/>
<path d="M29.6371 47.1321H33.2192V21.1698H29.6371V33.2075H18.3629V21.1698H14.7808V47.1321H18.3629V36.7924H29.6371V47.1321Z" fill="white"/>
<path d="M32.0503 22.5283H30.8437V45.8113H32.0503V22.5283Z" fill="#402211"/>
<path d="M31.447 34.4529H16.5907V35.6604H31.447V34.4529Z" fill="#402211"/>
<path d="M17.194 22.5283H15.9874V45.8113H17.194V22.5283Z" fill="#402211"/>
<path d="M19.2679 16.3773C18.2121 16.3773 17.3071 15.5094 17.3071 14.415C17.3071 13.3584 18.1744 12.4528 19.2679 12.4528C20.3236 12.4528 21.2286 13.3207 21.2286 14.415C21.2286 15.5094 20.3613 16.3773 19.2679 16.3773ZM19.2679 13.2829C18.6268 13.2829 18.099 13.8112 18.099 14.4528C18.099 15.0943 18.6268 15.6226 19.2679 15.6226C19.9089 15.6226 20.4367 15.0943 20.4367 14.4528C20.4367 13.7735 19.9089 13.2829 19.2679 13.2829Z" fill="#402211"/>
<path d="M24.0188 16.3773C22.9631 16.3773 22.0581 15.5094 22.0581 14.415C22.0581 13.3584 22.9253 12.4528 24.0188 12.4528C25.0746 12.4528 25.9795 13.3207 25.9795 14.415C25.9418 15.5094 25.0746 16.3773 24.0188 16.3773ZM24.0188 13.2829C23.3778 13.2829 22.8499 13.8112 22.8499 14.4528C22.8499 15.0943 23.3778 15.6226 24.0188 15.6226C24.6598 15.6226 25.1877 15.0943 25.1877 14.4528C25.15 13.7735 24.6221 13.2829 24.0188 13.2829Z" fill="#402211"/>
<path d="M28.7321 16.3773C27.6763 16.3773 26.7714 15.5094 26.7714 14.415C26.7714 13.3584 27.6386 12.4528 28.7321 12.4528C29.7879 12.4528 30.6928 13.3207 30.6928 14.415C30.6928 15.5094 29.8256 16.3773 28.7321 16.3773ZM28.7321 13.2829C28.0911 13.2829 27.5632 13.8112 27.5632 14.4528C27.5632 15.0943 28.0911 15.6226 28.7321 15.6226C29.3731 15.6226 29.901 15.0943 29.901 14.4528C29.901 13.7735 29.3731 13.2829 28.7321 13.2829Z" fill="#402211"/>
<path d="M24.3959 9.24524H23.6041V11.2452H24.3959V9.24524Z" fill="#402211"/>
<path d="M24.9992 9.849H23.0008V10.6415H24.9992V9.849Z" fill="#402211"/>
<path d="M73.54 28H75.28L69.02 14H67.36L61.08 28H62.78L64.34 24.42H71.96L73.54 28ZM65 22.94L68.14 15.74L71.32 22.94H65ZM82.5355 14H77.2755V28H78.8755V23.56H82.5355C85.9955 23.56 87.9955 21.78 87.9955 18.7C87.9955 15.72 85.9955 14 82.5355 14ZM82.4755 22.08H78.8755V15.48H82.4755C84.9955 15.48 86.4555 16.6 86.4555 18.74C86.4555 20.94 84.9955 22.08 82.4755 22.08ZM95.7144 14H90.4544V28H92.0544V23.56H95.7144C99.1744 23.56 101.174 21.78 101.174 18.7C101.174 15.72 99.1744 14 95.7144 14ZM95.6544 22.08H92.0544V15.48H95.6544C98.1744 15.48 99.6344 16.6 99.6344 18.74C99.6344 20.94 98.1744 22.08 95.6544 22.08ZM103.053 14V28H106.213V22.48H112.553V28H115.713V14H112.553V19.84H106.213V14H103.053ZM128.935 28H132.315L126.335 14H123.075L116.995 28H120.255L121.355 25.28H127.835L128.935 28ZM122.395 22.74L124.615 17.3L126.815 22.74H122.395ZM130.977 14L136.477 28H139.737L145.297 14H142.037L138.197 24.56L134.377 14H130.977ZM155.918 28H159.298L153.318 14H150.058L143.978 28H147.238L148.338 25.28H154.818L155.918 28ZM149.378 22.74L151.598 17.3L153.798 22.74H149.378ZM160.554 14V28H163.574V19.02L170.354 28H173.234V14H170.234V23L163.434 14H160.554ZM176.116 14V28H179.136V19.02L185.916 28H188.796V14H185.796V23L178.996 14H176.116ZM202.017 28H205.397L199.417 14H196.157L190.077 28H193.337L194.437 25.28H200.917L202.017 28ZM195.477 22.74L197.697 17.3L199.897 22.74H195.477ZM62.484 36.2V46H63.604V41.66H69.512V46H70.632V36.2H69.512V40.638H63.604V36.2H62.484ZM77.6732 36.172C74.8032 36.172 72.5352 38.342 72.5352 41.1C72.5352 43.858 74.8032 46.042 77.6732 46.042C80.5292 46.042 82.7972 43.858 82.7972 41.1C82.7972 38.342 80.5292 36.172 77.6732 36.172ZM77.6732 37.208C79.8572 37.208 81.6492 38.93 81.6492 41.1C81.6492 43.27 79.8572 45.02 77.6732 45.02C75.4892 45.02 73.6692 43.27 73.6692 41.1C73.6692 38.93 75.4892 37.208 77.6732 37.208ZM83.2549 36.2V37.236H86.4469V46H87.5669V37.236H90.7729V36.2H83.2549ZM92.2515 36.2V46H99.0835V44.964H93.3715V41.548H98.3135V40.526H93.3715V37.236H98.9015V36.2H92.2515ZM101.231 36.2V46H106.649V44.964H102.351V36.2H101.231ZM108.323 36.2V46H115.155V44.964H109.443V41.548H114.385V40.526H109.443V37.236H114.973V36.2H108.323ZM122.846 38.062L123.322 37.068C122.51 36.522 121.348 36.158 120.214 36.158C118.184 36.158 116.826 37.138 116.826 38.678C116.826 42.192 122.342 40.806 122.328 43.424C122.328 44.376 121.446 44.95 120.032 44.95C118.926 44.95 117.68 44.446 116.77 43.578L116.266 44.544C117.19 45.426 118.59 46.042 120.018 46.042C122.118 46.042 123.56 44.992 123.56 43.368C123.574 39.812 118.058 41.142 118.058 38.594C118.058 37.754 118.884 37.25 120.144 37.25C120.928 37.25 121.964 37.488 122.846 38.062Z" fill="#402211"/>
</svg>
