<svg width="205" height="36" viewBox="0 0 205 36" fill="none" xmlns="http://www.w3.org/2000/svg">
<g clip-path="url(#clip0)">
<path opacity="0.7" d="M188.782 6.15918L185.072 22.6194H194.93L191.22 6.15918H188.782ZM187.192 21.0264L190.054 8.49546L192.81 21.0264H187.192Z" fill="#402211"/>
<path opacity="0.7" d="M193.764 3.07959H186.345L179.243 32.9203H181.045L182.741 25.8052H197.156L198.852 32.9203H200.654L193.764 3.07959ZM183.165 24.1061L187.617 4.7787H192.386L196.838 24.1061H183.165Z" fill="#402211"/>
<path opacity="0.7" d="M196.414 0H183.588L175.002 36H183.906L185.496 28.885H194.612L196.202 36H205.106L196.414 0ZM197.58 34.3009L195.99 27.1858H184.012L182.422 34.3009H177.228L184.966 1.69912H194.93L202.668 34.3009H197.58Z" fill="#402211"/>
<path opacity="0.7" d="M149.669 3.07959V32.9203H151.471V4.7787H152.955L165.463 32.9203H170.021V3.07959H168.219V31.2212H166.735L154.227 3.07959H149.669Z" fill="#402211"/>
<path opacity="0.7" d="M164.827 18.7965L156.453 0H146.277V36H154.863V17.3097L163.237 36H173.413V0H164.827V18.7965ZM166.629 1.69912H171.611V34.3009H164.509L153.061 9.13274V34.3009H148.079V1.69912H155.181L166.629 26.7611V1.69912Z" fill="#402211"/>
<path opacity="0.7" d="M117.021 3.07959V32.9203H118.823V4.7787H120.307L132.815 32.9203H137.373V3.07959H135.571V31.2212H134.087L121.579 3.07959H117.021Z" fill="#402211"/>
<path opacity="0.7" d="M132.18 18.7965L123.806 0H113.63V36H122.216V17.3097L130.59 36H140.765V0H132.18V18.7965ZM133.981 1.69912H138.963V34.3009H131.862L120.414 9.13274V34.3009H115.432V1.69912H122.534L133.981 26.7611V1.69912Z" fill="#402211"/>
<path opacity="0.7" d="M95.292 6.15918L91.582 22.6194H101.44L97.7299 6.15918H95.292ZM93.702 21.0264L96.5639 8.49546L99.3199 21.0264H93.702Z" fill="#402211"/>
<path opacity="0.7" d="M92.7483 3.07959L85.7524 32.9203H87.5544L89.2504 25.8052H103.666L105.362 32.9203H107.164L100.274 3.07959H92.7483ZM89.6744 24.1061L94.1263 4.7787H98.8962L103.348 24.1061H89.6744Z" fill="#402211"/>
<path opacity="0.7" d="M90.098 0L81.5122 36H90.416L92.006 28.885H101.122L102.712 36H111.616L102.924 0H90.098ZM104.09 34.3009L102.5 27.1858H90.522L88.9321 34.3009H83.7382L91.476 1.69912H101.44L109.178 34.3009H104.09Z" fill="#402211"/>
<path opacity="0.7" d="M78.8626 3.07959L72.2907 31.2212H67.5208L60.9489 3.07959H59.147L66.1428 32.9203H73.6687L80.6645 3.07959H78.8626Z" fill="#402211"/>
<path opacity="0.7" d="M76.0003 0L69.9584 27.5044L63.8106 0H54.9067L63.4926 36H76.3183L84.9042 0H76.0003ZM74.8344 34.3009H64.8705L57.2387 1.69912H62.4326L68.7925 29.8407H71.2304L77.5903 1.69912H82.6782L74.8344 34.3009Z" fill="#402211"/>
<path opacity="0.7" d="M41.2334 6.15918L37.5234 22.6194H47.3812L43.6713 6.15918H41.2334ZM39.5374 21.0264L42.3993 8.38927L45.1553 20.9202H39.5374V21.0264Z" fill="#402211"/>
<path opacity="0.7" d="M38.6892 3.07959L31.6934 32.9203H33.4953L35.1913 25.8052H49.607L51.303 32.9203H53.1049L46.1091 3.07959H38.6892ZM35.5093 24.1061L39.9612 4.7787H44.7311L49.183 24.1061H35.5093Z" fill="#402211"/>
<path opacity="0.7" d="M36.0394 0L27.4536 36H36.3574L37.9474 28.885H47.0632L48.6532 36H57.557L48.7592 0H36.0394ZM49.9252 34.3009L48.3352 27.1858H36.4634L34.8735 34.3009H29.6796L37.4174 1.69912H47.3812L55.1191 34.3009H49.9252Z" fill="#402211"/>
<path opacity="0.7" d="M5.19405 3.07959H3.39209V32.9203H5.19405V17.9468H20.8817V32.9203H22.7897V3.07959H20.8817V16.2477H5.19405V3.07959Z" fill="#402211"/>
<path opacity="0.7" d="M17.5957 0V13.1681H8.58583V0H0V36H8.58583V21.0265H17.5957V36H26.1815V0H17.5957ZM24.2735 34.3009H19.2916V19.3274H6.78387V34.3009H1.80196V1.69912H6.78387V14.8673H19.3976V1.69912H24.3795V34.3009H24.2735Z" fill="#402211"/>
</g>
<defs>
<clipPath id="clip0">
<rect width="205" height="36" fill="white"/>
</clipPath>
</defs>
</svg>
