<svg width="209" height="64" viewBox="0 0 209 64" fill="none" xmlns="http://www.w3.org/2000/svg">
<path d="M24.0189 64L23.7926 63.9245C2.30008 55.8113 0.0754124 43.1698 0 42.6038V42.5283V6.79245C0 0.566038 21.9073 0.0377358 24.3959 0C45.2474 0 47.8869 6.33962 47.9623 6.60377L48 6.83019V42.6415C47.9246 43.1698 45.6999 55.8113 24.2074 63.9623L24.0189 64Z" fill="#402211"/>
<path d="M1.2066 42.4528C1.35743 43.2453 3.99686 55.0566 24.0189 62.717C44.0786 55.0566 46.6803 43.2453 46.8311 42.4528V6.94337C46.4541 6.26412 42.9474 1.20752 24.4336 1.20752C15.4596 1.32073 1.2066 2.9811 1.2066 6.79243V42.4528Z" fill="white"/>
<path d="M34.4258 48.3395H28.4305V37.9999H19.5695V48.3395H13.6119V19.9622H19.5695V31.9999H28.4682V19.9622H34.4258V48.3395Z" fill="#402211"/>
<path d="M34.4258 48.3395H28.4305V37.9999H19.5695V48.3395H13.6119V19.9622H19.5695V31.9999H28.4682V19.9622H34.4258V48.3395Z" fill="#402211"/>
<path d="M29.6371 47.1321H33.2192V21.1698H29.6371V33.2075H18.3629V21.1698H14.7808V47.1321H18.3629V36.7924H29.6371V47.1321Z" fill="white"/>
<path d="M32.0503 22.5283H30.8437V45.8113H32.0503V22.5283Z" fill="#402211"/>
<path d="M31.4469 34.4529H16.5907V35.6604H31.4469V34.4529Z" fill="#402211"/>
<path d="M17.194 22.5283H15.9874V45.8113H17.194V22.5283Z" fill="#402211"/>
<path d="M19.2679 16.3773C18.2121 16.3773 17.3071 15.5094 17.3071 14.415C17.3071 13.3584 18.1744 12.4528 19.2679 12.4528C20.3236 12.4528 21.2286 13.3207 21.2286 14.415C21.2286 15.5094 20.3613 16.3773 19.2679 16.3773ZM19.2679 13.2829C18.6268 13.2829 18.099 13.8112 18.099 14.4528C18.099 15.0943 18.6268 15.6226 19.2679 15.6226C19.9089 15.6226 20.4367 15.0943 20.4367 14.4528C20.4367 13.7735 19.9089 13.2829 19.2679 13.2829Z" fill="#402211"/>
<path d="M24.0188 16.3773C22.9631 16.3773 22.0581 15.5094 22.0581 14.415C22.0581 13.3584 22.9253 12.4528 24.0188 12.4528C25.0746 12.4528 25.9795 13.3207 25.9795 14.415C25.9418 15.5094 25.0746 16.3773 24.0188 16.3773ZM24.0188 13.2829C23.3778 13.2829 22.8499 13.8112 22.8499 14.4528C22.8499 15.0943 23.3778 15.6226 24.0188 15.6226C24.6598 15.6226 25.1877 15.0943 25.1877 14.4528C25.15 13.7735 24.6221 13.2829 24.0188 13.2829Z" fill="#402211"/>
<path d="M28.7321 16.3773C27.6763 16.3773 26.7714 15.5094 26.7714 14.415C26.7714 13.3584 27.6386 12.4528 28.7321 12.4528C29.7879 12.4528 30.6928 13.3207 30.6928 14.415C30.6928 15.5094 29.8256 16.3773 28.7321 16.3773ZM28.7321 13.2829C28.0911 13.2829 27.5632 13.8112 27.5632 14.4528C27.5632 15.0943 28.0911 15.6226 28.7321 15.6226C29.3731 15.6226 29.901 15.0943 29.901 14.4528C29.901 13.7735 29.3731 13.2829 28.7321 13.2829Z" fill="#402211"/>
<path d="M24.3959 9.24524H23.6041V11.2452H24.3959V9.24524Z" fill="#402211"/>
<path d="M24.9992 9.849H23.0007V10.6415H24.9992V9.849Z" fill="#402211"/>
<path d="M73.54 37H75.28L69.02 23H67.36L61.08 37H62.78L64.34 33.42H71.96L73.54 37ZM65 31.94L68.14 24.74L71.32 31.94H65ZM82.5355 23H77.2755V37H78.8755V32.56H82.5355C85.9955 32.56 87.9955 30.78 87.9955 27.7C87.9955 24.72 85.9955 23 82.5355 23ZM82.4755 31.08H78.8755V24.48H82.4755C84.9955 24.48 86.4555 25.6 86.4555 27.74C86.4555 29.94 84.9955 31.08 82.4755 31.08ZM95.7144 23H90.4544V37H92.0544V32.56H95.7144C99.1744 32.56 101.174 30.78 101.174 27.7C101.174 24.72 99.1744 23 95.7144 23ZM95.6544 31.08H92.0544V24.48H95.6544C98.1744 24.48 99.6344 25.6 99.6344 27.74C99.6344 29.94 98.1744 31.08 95.6544 31.08ZM103.053 23V37H106.213V31.48H112.553V37H115.713V23H112.553V28.84H106.213V23H103.053ZM128.935 37H132.315L126.335 23H123.075L116.995 37H120.255L121.355 34.28H127.835L128.935 37ZM122.395 31.74L124.615 26.3L126.815 31.74H122.395ZM130.977 23L136.477 37H139.737L145.297 23H142.037L138.197 33.56L134.377 23H130.977ZM155.918 37H159.298L153.318 23H150.058L143.978 37H147.238L148.338 34.28H154.818L155.918 37ZM149.378 31.74L151.598 26.3L153.798 31.74H149.378ZM160.554 23V37H163.574V28.02L170.354 37H173.234V23H170.234V32L163.434 23H160.554ZM176.116 23V37H179.136V28.02L185.916 37H188.796V23H185.796V32L178.996 23H176.116ZM202.017 37H205.397L199.417 23H196.157L190.077 37H193.337L194.437 34.28H200.917L202.017 37ZM195.477 31.74L197.697 26.3L199.897 31.74H195.477Z" fill="#402211"/>
</svg>
