<svg width="239" height="42" viewBox="0 0 239 42" fill="none" xmlns="http://www.w3.org/2000/svg">
<g clip-path="url(#clip0)">
<path opacity="0.7" d="M220.093 7.18591L215.767 26.3895H227.26L222.935 7.18591H220.093ZM218.239 24.531L221.575 9.91158L224.789 24.531H218.239Z" fill="#402211"/>
<path opacity="0.7" d="M225.901 3.5929H217.25L208.971 38.4071H211.071L213.049 30.1062H229.855L231.832 38.4071H233.933L225.901 3.5929ZM213.543 28.1239L218.733 5.5752H224.294L229.484 28.1239H213.543Z" fill="#402211"/>
<path opacity="0.7" d="M228.99 0H214.037L204.027 42H214.408L216.262 33.6991H226.889L228.743 42H239.124L228.99 0ZM230.35 40.0177L228.496 31.7168H214.532L212.678 40.0177H206.623L215.644 1.9823H227.26L236.281 40.0177H230.35Z" fill="#402211"/>
<path opacity="0.7" d="M174.492 3.5929V38.4071H176.593V5.5752H178.323L192.905 38.4071H198.219V3.5929H196.118V36.4247H194.388L179.806 3.5929H174.492Z" fill="#402211"/>
<path opacity="0.7" d="M192.164 21.9292L182.401 0H170.538V42H180.548V20.1947L190.31 42H202.174V0H192.164V21.9292ZM194.265 1.9823H200.073V40.0177H191.793L178.447 10.6549V40.0177H172.639V1.9823H180.918L194.265 31.2212V1.9823Z" fill="#402211"/>
<path opacity="0.7" d="M136.43 3.5929V38.4071H138.531V5.5752H140.261L154.843 38.4071H160.157V3.5929H158.056V36.4247H156.326L141.744 3.5929H136.43Z" fill="#402211"/>
<path opacity="0.7" d="M154.102 21.9292L144.339 0H132.476V42H142.486V20.1947L152.248 42H164.112V0H154.102V21.9292ZM156.203 1.9823H162.011V40.0177H153.731L140.385 10.6549V40.0177H134.577V1.9823H142.856L156.203 31.2212V1.9823Z" fill="#402211"/>
<path opacity="0.7" d="M111.097 7.18591L106.771 26.3895H118.264L113.939 7.18591H111.097ZM109.243 24.531L112.58 9.91158L115.793 24.531H109.243Z" fill="#402211"/>
<path opacity="0.7" d="M108.131 3.5929L99.9747 38.4071H102.075L104.053 30.1062H120.859L122.837 38.4071H124.937L116.905 3.5929H108.131ZM104.547 28.1239L109.737 5.5752H115.298L120.489 28.1239H104.547Z" fill="#402211"/>
<path opacity="0.7" d="M105.041 0L95.0315 42H105.412L107.266 33.6991H117.893L119.747 42H130.128L119.994 0H105.041ZM121.354 40.0177L119.5 31.7168H105.536L103.682 40.0177H97.6267L106.648 1.9823H118.264L127.285 40.0177H121.354Z" fill="#402211"/>
<path opacity="0.7" d="M91.9421 3.5929L84.2802 36.4247H78.7192L71.0574 3.5929H68.9566L77.1127 38.4071H85.8868L94.0429 3.5929H91.9421Z" fill="#402211"/>
<path opacity="0.7" d="M88.6055 0L81.5615 32.0885L74.394 0H64.0134L74.0233 42H88.9762L98.986 0H88.6055ZM87.2461 40.0177H75.6298L66.7322 1.9823H72.7875L80.2022 34.8142H83.0445L90.4592 1.9823H96.3909L87.2461 40.0177Z" fill="#402211"/>
<path opacity="0.7" d="M48.0719 7.18591L43.7466 26.3895H55.2394L50.9142 7.18591H48.0719ZM46.0946 24.531L49.4312 9.78768L52.6443 24.4072H46.0946V24.531Z" fill="#402211"/>
<path opacity="0.7" d="M45.106 3.5929L36.9498 38.4071H39.0507L41.0279 30.1062H57.8345L59.8118 38.4071H61.9126L53.7565 3.5929H45.106ZM41.3987 28.1239L46.5889 5.5752H52.1499L57.3402 28.1239H41.3987Z" fill="#402211"/>
<path opacity="0.7" d="M42.0165 0L32.0067 42H42.3873L44.2409 33.6991H54.8687L56.7223 42H67.1029L56.8459 0H42.0165ZM58.2053 40.0177L56.3516 31.7168H42.5109L40.6572 40.0177H34.6019L43.6231 1.9823H55.2394L64.2606 40.0177H58.2053Z" fill="#402211"/>
<path opacity="0.7" d="M6.05533 3.5929H3.9545V38.4071H6.05533V20.938H24.3449V38.4071H26.5693V3.5929H24.3449V18.9557H6.05533V3.5929Z" fill="#402211"/>
<path opacity="0.7" d="M20.514 0V15.3628H10.0098V0H0V42H10.0098V24.531H20.514V42H30.5238V0H20.514ZM28.2994 40.0177H22.4912V22.5487H7.909V40.0177H2.10083V1.9823H7.909V17.3451H22.6148V1.9823H28.423V40.0177H28.2994Z" fill="#402211"/>
</g>
<defs>
<clipPath id="clip0">
<rect width="239" height="42" fill="white"/>
</clipPath>
</defs>
</svg>
