<svg width="162" height="49" viewBox="0 0 162 49" fill="none" xmlns="http://www.w3.org/2000/svg">
<g clip-path="url(#clip0)">
<path d="M49.763 49H4.24821C3.8245 49 3.47885 48.6516 3.47885 48.2245V21.7241C3.47885 21.297 3.8245 20.9486 4.24821 20.9486C4.67191 20.9486 5.01757 21.297 5.01757 21.7241V47.4603H48.9936V21.7241C48.9936 21.297 49.3392 20.9486 49.763 20.9486C50.1867 20.9486 50.5323 21.297 50.5323 21.7241V48.2357C50.5323 48.6628 50.1867 49 49.763 49Z" fill="#402211"/>
<path d="M53.2306 14.7899H0.769358C0.345653 14.7899 0 14.4415 0 14.0032C0 13.8908 0.0223002 13.7784 0.0780508 13.6773L6.24406 0.460772C6.36671 0.191047 6.64546 0.0112305 6.93537 0.0112305H47.0535C47.3545 0.0112305 47.6221 0.179808 47.7559 0.460772L53.9331 13.6773C54.1115 14.0706 53.9442 14.5314 53.5651 14.7112C53.4536 14.7674 53.3421 14.7899 53.2306 14.7899ZM1.98472 13.239H52.0153L46.574 1.57339H7.43712L1.98472 13.239Z" fill="#402211"/>
<path d="M48.8598 22.1398C46.0165 22.1398 43.7196 19.8134 43.7196 16.9588V14.0143C43.7196 13.5873 44.0653 13.2389 44.489 13.2389H53.2307C53.6544 13.2389 54 13.5873 54 14.0143V16.9588C54 19.8247 51.7031 22.1398 48.8598 22.1398ZM45.2583 14.7898V16.9588C45.2249 18.9593 46.8193 20.6114 48.8041 20.6451C50.7888 20.6788 52.4278 19.0717 52.4613 17.0712C52.4613 17.0375 52.4613 17.0038 52.4613 16.9701V14.801H45.2583V14.7898Z" fill="#402211"/>
<path d="M40.1181 22.1398C37.2748 22.1398 34.9779 19.8134 34.9779 16.9588V14.0143C34.9779 13.5873 35.3236 13.2389 35.7473 13.2389H44.489C44.9127 13.2389 45.2583 13.5873 45.2583 14.0143V16.9588C45.2583 19.8247 42.9502 22.1398 40.1181 22.1398ZM36.5166 14.7898V16.9588C36.5166 18.9593 38.1334 20.5889 40.1181 20.5889C42.1028 20.5889 43.7196 18.9593 43.7196 16.9588V14.7898H36.5166Z" fill="#402211"/>
<path d="M31.3764 22.1398C28.5332 22.1398 26.2362 19.8134 26.2362 16.9588V14.0143C26.2362 13.5873 26.5819 13.2389 27.0056 13.2389H35.7473C36.171 13.2389 36.5167 13.5873 36.5167 14.0143V16.9588C36.5167 19.8247 34.2086 22.1398 31.3764 22.1398ZM27.775 14.7898V16.9588C27.7415 18.9593 29.336 20.6114 31.3207 20.6451C33.3054 20.6788 34.9445 19.0717 34.9779 17.0712C34.9779 17.0375 34.9779 17.0038 34.9779 16.9701V14.801H27.775V14.7898Z" fill="#402211"/>
<path d="M22.6347 22.1398C19.7915 22.1398 17.4945 19.8134 17.4945 16.9588V14.0143C17.4945 13.5873 17.8402 13.2389 18.2639 13.2389H27.0056C27.4293 13.2389 27.7749 13.5873 27.7749 14.0143V16.9588C27.7749 19.8247 25.4669 22.1398 22.6347 22.1398ZM19.0333 14.7898V16.9588C18.9998 18.9593 20.5943 20.6114 22.579 20.6451C24.5637 20.6788 26.2028 19.0717 26.2362 17.0712C26.2362 17.0375 26.2362 17.0038 26.2362 16.9701V14.801H19.0333V14.7898Z" fill="#402211"/>
<path d="M13.8819 22.1398C11.0386 22.1398 8.7417 19.8134 8.7417 16.9588V14.0143C8.7417 13.5873 9.08735 13.2389 9.51106 13.2389H18.2527C18.6764 13.2389 19.0221 13.5873 19.0221 14.0143V16.9588C19.0221 19.8247 16.7252 22.1398 13.8819 22.1398ZM10.2804 14.7898V16.9588C10.2804 18.9593 11.8972 20.5889 13.8819 20.5889C15.8666 20.5889 17.4834 18.9593 17.4834 16.9588V14.7898H10.2804Z" fill="#402211"/>
<path d="M5.1402 22.1398C2.30807 22.1398 0 19.8247 0 16.9588V14.0143C0 13.5873 0.345654 13.2389 0.769358 13.2389H9.51105C9.93475 13.2389 10.2804 13.5873 10.2804 14.0143V16.9588C10.2804 19.8247 7.98348 22.1398 5.1402 22.1398ZM1.53872 14.7898V16.9588C1.50527 18.9593 3.09973 20.6114 5.08445 20.6451C7.06917 20.6788 8.70824 19.0717 8.74169 17.0712C8.74169 17.0375 8.74169 17.0038 8.74169 16.9701V14.801H1.53872V14.7898Z" fill="#402211"/>
<path d="M20.8284 48.9999H10.548C10.1243 48.9999 9.77866 48.6515 9.77866 48.2245V28.5233C9.77866 28.0963 10.1243 27.7479 10.548 27.7479H20.8284C21.2521 27.7479 21.5978 28.0963 21.5978 28.5233V48.2357C21.5978 48.6628 21.2521 48.9999 20.8284 48.9999ZM11.3174 47.449H20.0591V29.2988H11.3174V47.449Z" fill="#402211"/>
<path d="M42.783 39.6495H27.6077C27.184 39.6495 26.8383 39.3011 26.8383 38.874V28.9504C26.8383 28.2873 27.3735 27.7479 28.0314 27.7479H42.3593C43.0171 27.7479 43.5524 28.2873 43.5524 28.9504V38.874C43.5524 39.3011 43.2067 39.6495 42.783 39.6495ZM28.3882 38.0986H42.0136V29.2988H28.3882V38.0986Z" fill="#402211"/>
<path d="M44.3217 39.6495H26.069C25.6453 39.6495 25.2996 39.3012 25.2996 38.8741C25.2996 38.447 25.6453 38.0986 26.069 38.0986H44.3217C44.7454 38.0986 45.0911 38.447 45.0911 38.8741C45.1022 39.3012 44.7566 39.6495 44.3217 39.6495Z" fill="#402211"/>
<path d="M44.489 14.7899C44.1322 14.7899 43.82 14.5427 43.7419 14.183L40.7648 0.966508C40.6756 0.550683 40.9544 0.134857 41.3669 0.0449486C41.7683 -0.0337211 42.1697 0.213527 42.2701 0.618114L45.2472 13.8346C45.3364 14.2505 45.0799 14.6663 44.6674 14.7674C44.6005 14.7899 44.5447 14.7899 44.489 14.7899Z" fill="#402211"/>
<path d="M35.58 14.7898C35.2009 14.7898 34.8887 14.5201 34.8218 14.1492L32.4803 0.932712C32.4134 0.505648 32.6921 0.112299 33.1158 0.0336298C33.5284 -0.0338014 33.9186 0.235923 33.9967 0.651749L36.3382 13.8683C36.4163 14.2953 36.1375 14.6887 35.7138 14.7673C35.6692 14.7898 35.6246 14.7898 35.58 14.7898Z" fill="#402211"/>
<path d="M9.51106 14.79C9.08735 14.79 8.7417 14.4416 8.7417 14.0145C8.7417 13.9583 8.75285 13.9021 8.764 13.8459L11.7411 0.618181C11.8303 0.202356 12.2317 -0.0786078 12.6554 0.0113005C13.0679 0.101209 13.3467 0.505796 13.2575 0.93286C13.2575 0.944099 13.2575 0.955337 13.2463 0.966576L10.2693 14.1831C10.1801 14.5427 9.86786 14.79 9.51106 14.79Z" fill="#402211"/>
<path d="M18.42 14.7898C18.3754 14.7898 18.3308 14.7898 18.2862 14.7786C17.8625 14.6999 17.5837 14.2953 17.6618 13.8795L20.0033 0.662981C20.0814 0.235917 20.4828 -0.033808 20.9065 0.0448617C21.319 0.123531 21.5978 0.51688 21.5197 0.932706L19.1782 14.1492C19.1113 14.5201 18.7991 14.7898 18.42 14.7898Z" fill="#402211"/>
<path d="M27.0056 14.7899C26.5819 14.7899 26.2362 14.4415 26.2362 14.0144V0.79792C26.2362 0.370855 26.5819 0.0224609 27.0056 0.0224609C27.4293 0.0224609 27.775 0.370855 27.775 0.79792V14.0144C27.775 14.4415 27.4293 14.7899 27.0056 14.7899Z" fill="#402211"/>
</g>
<path d="M66.54 17V31H75.7V28.24H69.7V17H66.54ZM83.8952 16.9C79.6152 16.9 76.3752 19.92 76.3752 24C76.3752 28.06 79.6152 31.14 83.8952 31.14C88.1752 31.14 91.4152 28.04 91.4152 24C91.4152 19.94 88.1752 16.9 83.8952 16.9ZM83.9352 19.66C86.2752 19.66 88.1752 21.54 88.1752 24C88.1752 26.46 86.2752 28.38 83.9352 28.38C81.5952 28.38 79.6152 26.46 79.6152 24C79.6152 21.54 81.5752 19.66 83.9352 19.66ZM103.077 21.46L104.917 19.22C103.537 17.8 101.417 16.9 99.3969 16.9C95.1569 16.9 91.9369 19.94 91.9369 23.98C91.9369 28.04 95.0969 31.14 99.2769 31.14C101.317 31.14 103.457 30.16 104.937 28.64L103.077 26.62C102.077 27.62 100.697 28.26 99.4369 28.26C97.0369 28.26 95.1769 26.38 95.1769 23.94C95.1769 21.5 97.0369 19.64 99.4369 19.64C100.737 19.64 102.117 20.36 103.077 21.46ZM116.827 31H120.207L114.227 17H110.967L104.887 31H108.147L109.247 28.28H115.727L116.827 31ZM110.287 25.74L112.507 20.3L114.707 25.74H110.287ZM121.463 17V31H130.623V28.24H124.623V17H121.463ZM132.298 17V31H143.178V28.38H135.458V25.28H142.198V22.66H135.458V19.62H142.958V17H132.298ZM154.677 21L155.897 18.38C154.497 17.46 152.537 16.86 150.577 16.86C147.337 16.86 145.157 18.46 145.157 21C145.157 25.96 152.617 24.42 152.617 27.06C152.617 27.92 151.837 28.4 150.537 28.4C149.057 28.4 147.017 27.58 145.577 26.3L144.317 28.88C145.897 30.22 148.197 31.1 150.497 31.1C153.597 31.1 155.977 29.62 155.977 26.88C155.997 21.84 148.537 23.28 148.537 20.7C148.537 19.94 149.257 19.56 150.317 19.56C151.437 19.56 153.197 20.12 154.677 21Z" fill="#402211"/>
<defs>
<clipPath id="clip0">
<rect width="54" height="49" fill="white"/>
</clipPath>
</defs>
</svg>
