<svg width="177" height="41" viewBox="0 0 177 41" fill="none" xmlns="http://www.w3.org/2000/svg">
<path d="M43.2929 18.754C42.7247 21.3439 41.6933 23.639 40.085 25.6484C37.4366 28.9527 33.9316 30.8013 29.937 31.7926C27.5683 32.382 25.1559 32.6053 22.7259 32.5963C20.0775 32.5874 17.4203 32.5963 14.7719 32.5874C14.4572 32.5874 14.3348 32.6678 14.2561 33.0071C13.8104 34.8915 13.3471 36.7669 12.8576 38.6423C12.5954 39.6425 12.1933 40.5713 11.0745 40.8571C10.7424 40.9464 10.384 40.991 10.0431 40.991C7.28978 41 4.53644 41 1.78311 40.991C0.559406 40.991 -0.22726 39.9997 0.0524433 38.7852C0.646814 36.1953 1.25867 33.6055 1.87052 31.0156C1.90548 30.8817 1.98415 30.7299 2.08904 30.6495C5.45422 27.9971 9.06415 25.7913 13.1024 24.3803C14.6582 23.8355 16.1704 23.9337 17.7 24.5142C18.7052 24.8982 19.7191 25.2644 20.7505 25.5323C22.5424 25.9967 24.273 25.6216 25.9425 24.9429C28.1627 24.032 30.3391 23.0228 32.5593 22.094C36.0119 20.6562 39.5606 19.5131 43.2929 18.754Z" fill="#402211"/>
<path d="M3.74103 23.1389C3.95081 22.228 4.1431 21.3975 4.3354 20.567C5.72518 14.6549 7.11495 8.74295 8.49599 2.82201C8.92429 1.00019 10.0693 0.0178315 11.9049 0.00890101C16.9745 -2.95029e-05 22.0441 -0.0178905 27.105 0.00890101C29.937 0.026762 32.7166 0.401844 35.365 1.51816C37.3142 2.33977 39.0449 3.48287 40.4609 5.0993C40.5308 5.17967 40.6007 5.27791 40.7318 5.44759C40.2773 5.42079 39.9102 5.37614 39.5431 5.38507C37.2006 5.42972 34.8581 5.42079 32.5243 5.56368C28.8007 5.78695 25.1121 6.31385 21.5022 7.35872C17.9185 8.40359 15.6547 10.7255 14.7019 14.396C14.3785 15.6284 13.9415 16.8251 13.181 17.861C12.3594 18.9773 11.3105 19.7989 10.1305 20.4776C8.13762 21.6208 6.04858 22.5317 3.74103 23.1389Z" fill="#402211"/>
<path d="M61.5698 24.8089C61.5698 25.6395 61.5698 26.4075 61.5698 27.1755C61.5698 27.6488 61.5698 28.1311 61.5698 28.6044C61.5698 29.5243 61.159 30.0512 60.2762 30.1226C59.4982 30.1851 58.7116 30.1405 57.9074 30.1405C57.9074 24.1481 57.9074 18.1914 57.9074 12.1812C58.021 12.1723 58.1434 12.1544 58.2658 12.1544C60.8006 12.1544 63.3354 12.1187 65.8615 12.1633C67.4173 12.1901 68.877 12.6188 70.0833 13.6815C71.6828 15.0836 72.1898 16.9322 72.0762 19.0041C71.9888 20.5134 71.4905 21.8708 70.4154 22.9603C69.3141 24.0766 67.9505 24.6393 66.4296 24.7375C64.9962 24.8268 63.5539 24.7911 62.1117 24.8179C61.9631 24.8089 61.7883 24.8089 61.5698 24.8089ZM61.6047 15.6998C61.6047 17.5663 61.6047 19.4506 61.6047 21.3439C63.0207 21.3439 64.4105 21.4064 65.7916 21.326C67.2688 21.2457 68.2215 20.2097 68.3089 18.754C68.4051 17.1108 67.6621 15.9141 66.1325 15.7355C64.6553 15.5659 63.1431 15.6998 61.6047 15.6998Z" fill="#402211"/>
<path d="M118.726 18.3968C118.726 16.2802 118.726 14.2441 118.726 12.1722C119.547 12.1722 120.351 12.1097 121.138 12.1901C121.671 12.2437 122.03 12.6723 122.134 13.2349C122.178 13.4493 122.187 13.6725 122.187 13.8958C122.187 19.1202 122.187 24.3445 122.187 29.5689C122.187 30.1583 122.187 30.1583 121.627 30.1583C121.234 30.1583 120.841 30.1583 120.447 30.1583C119.477 30.1493 119.049 29.8189 118.787 28.8901C118.332 29.2295 117.904 29.6314 117.406 29.8993C115.264 31.0603 112.327 30.453 110.632 28.524C109.233 26.9254 108.726 25.0322 108.901 22.9246C109.049 21.1206 109.723 19.5845 111.034 18.3343C112.887 16.566 115.963 16.2713 117.921 17.6913C118.192 17.8877 118.42 18.1199 118.726 18.3968ZM112.415 23.6033C112.327 25.6841 113.901 27.622 116.374 27.104C117.843 26.8004 118.638 25.7555 118.848 24.2999C119.058 22.862 118.726 21.5493 117.502 20.6741C116.435 19.915 115.264 19.8614 114.119 20.4776C112.913 21.1206 112.441 22.2458 112.415 23.6033Z" fill="#402211"/>
<path d="M100.116 30.1048C99.3036 30.1048 98.5431 30.1673 97.8002 30.0869C97.1621 30.0155 96.8562 29.4796 96.7338 28.8009C96.0957 29.5332 95.379 30.0333 94.5049 30.2834C91.9613 31.0246 89.1993 29.8547 87.8007 27.4524C86.2099 24.7197 86.577 21.0224 88.6661 18.6826C90.5366 16.5929 93.9105 16.1821 95.9996 17.7896C96.2181 17.9593 96.4104 18.1647 96.6639 18.3879C96.6639 16.3071 96.6639 14.271 96.6639 12.1901C97.5117 12.1901 98.3246 12.1187 99.12 12.208C99.7843 12.2884 100.116 12.8778 100.116 13.6726C100.116 19.0131 100.116 24.3535 100.116 29.694C100.116 29.8279 100.116 29.9619 100.116 30.1048ZM90.3793 23.6391C90.3705 26.1039 92.2935 27.6846 94.5399 27.0684C96.0083 26.6576 96.9348 25.2198 96.8737 23.4247C96.795 21.1296 94.8545 19.6382 92.6956 20.2097C91.297 20.5759 90.3793 21.9333 90.3793 23.6391Z" fill="#402211"/>
<path d="M173.539 18.4146C173.836 17.4412 174.229 17.1465 175.199 17.1465C175.794 17.1465 176.388 17.1465 177 17.1465C177 21.4867 177 25.7823 177 30.1493C176.152 30.1315 175.304 30.3012 174.474 30.0154C173.958 29.8368 173.74 29.3724 173.6 28.8276C172.866 29.6403 172.009 30.1761 170.978 30.3637C168.119 30.8906 165.392 29.4349 164.308 26.6486C163.251 23.9248 163.487 21.2992 165.305 18.9326C167.079 16.6285 170.619 16.0838 172.822 17.7627C173.067 17.9592 173.276 18.1824 173.539 18.4146ZM173.731 23.5675C173.731 23.4961 173.722 23.3532 173.705 23.2014C173.591 21.9422 173.032 20.9509 171.895 20.4151C170.715 19.8525 169.535 19.9507 168.495 20.7812C167.499 21.576 167.193 22.7013 167.245 23.9516C167.333 26.1395 169.273 27.622 171.327 27.0862C172.813 26.6843 173.722 25.3894 173.731 23.5675Z" fill="#402211"/>
<path d="M131.129 30.5155C127.79 30.4619 125.202 28.4972 124.468 25.3179C123.524 21.2635 125.963 17.3787 130.167 16.8697C132.492 16.5928 134.564 17.1733 136.216 18.9147C137.64 20.4151 138.165 22.2637 137.99 24.3445C137.745 27.3273 135.639 29.7207 132.684 30.319C132.169 30.4262 131.644 30.453 131.129 30.5155ZM134.476 23.7015C134.529 21.7189 133.148 20.1472 131.321 20.1025C129.249 20.0489 127.851 21.4331 127.79 23.5854C127.737 25.6126 129.101 27.1219 131.024 27.1844C132.999 27.238 134.424 25.8002 134.476 23.7015Z" fill="#402211"/>
<path d="M85.3971 24.6482C82.364 24.8536 79.4446 25.0501 76.464 25.2555C76.735 26.1842 77.2419 26.8183 78.0636 27.1666C79.2348 27.6578 80.3886 27.5238 81.5162 27.0148C81.7259 26.9165 81.927 26.7915 82.1455 26.7022C82.6525 26.4879 83.0808 26.5683 83.4479 26.9791C83.8936 27.4702 84.3219 27.9614 84.7852 28.4883C84.0335 29.2474 83.1769 29.7475 82.2067 30.0422C80.1439 30.6763 78.081 30.7388 76.1056 29.7207C74.1565 28.7205 73.1513 27.0237 72.8453 24.8625C72.5831 23.0496 72.8366 21.3082 73.7893 19.7275C74.7945 18.0575 76.2892 17.1376 78.1859 16.8786C79.8991 16.6375 81.4812 16.9412 82.8885 18.0039C84.2433 19.0309 84.9775 20.4598 85.231 22.1209C85.3621 22.9335 85.3446 23.7641 85.3971 24.6482ZM81.8308 22.1834C81.4025 20.3437 80.1089 19.7007 78.7978 19.8704C77.3643 20.0579 76.3067 21.2725 76.3766 22.5852C78.1947 22.4513 80.0128 22.3173 81.8308 22.1834Z" fill="#402211"/>
<path d="M148.671 12.1633C149.947 12.1633 151.171 12.1276 152.386 12.1812C152.954 12.199 153.286 12.6634 153.566 13.1367C154.86 15.3694 156.153 17.602 157.447 19.8346C157.473 19.8882 157.508 19.9329 157.578 20.04C157.936 19.4328 158.269 18.8523 158.601 18.2807C159.588 16.5839 160.585 14.8961 161.546 13.1814C161.957 12.4491 162.508 12.1008 163.356 12.1365C164.326 12.1812 165.305 12.1455 166.354 12.1455C166.153 12.4937 165.978 12.7974 165.794 13.0921C163.723 16.4678 161.642 19.8525 159.571 23.2372C159.457 23.4247 159.387 23.6748 159.387 23.898C159.37 25.8002 159.379 27.7024 159.379 29.6136C159.379 29.7743 159.379 29.9351 159.379 30.0869C158.452 30.0869 157.552 30.1494 156.669 30.069C156.083 30.0154 155.699 29.3456 155.699 28.658C155.69 27.0684 155.708 25.4698 155.69 23.8802C155.69 23.6301 155.611 23.3533 155.48 23.1389C153.313 19.6382 151.136 16.1463 148.968 12.6545C148.872 12.5116 148.794 12.3598 148.671 12.1633Z" fill="#402211"/>
<path d="M150.341 18.0664C150.044 18.754 149.79 19.397 149.493 20.0222C149.274 20.4955 148.837 20.6027 148.208 20.3794C147.133 20.0043 146.04 19.6918 144.887 19.7543C144.519 19.7721 144.144 19.8704 143.794 20.0043C143.401 20.1561 143.165 20.4776 143.182 20.942C143.2 21.3975 143.532 21.6029 143.881 21.6922C144.685 21.8797 145.498 22.0137 146.311 22.1566C147.36 22.3352 148.374 22.621 149.274 23.2372C150.988 24.4071 150.953 27.0505 149.921 28.4526C149.056 29.6225 147.832 30.1404 146.486 30.3459C144.502 30.6495 142.544 30.4977 140.656 29.7564C140.132 29.551 139.651 29.2563 139.118 28.9973C139.493 28.2561 139.817 27.5774 140.175 26.9255C140.385 26.5415 140.752 26.4611 141.198 26.7022C142.527 27.3988 143.951 27.622 145.42 27.5149C145.804 27.4881 146.189 27.372 146.547 27.2291C146.906 27.0862 147.124 26.8004 147.133 26.3718C147.142 25.9431 146.888 25.6752 146.547 25.5859C145.691 25.3626 144.825 25.184 143.96 25.0322C142.815 24.8357 141.722 24.5589 140.787 23.7998C139.074 22.4066 139.257 19.1291 141.242 17.8074C142.334 17.084 143.549 16.8518 144.808 16.8251C146.582 16.7893 148.304 17.1108 149.93 17.8789C150.07 17.9235 150.183 17.986 150.341 18.0664Z" fill="#402211"/>
<path d="M43.3279 10.4843C41.7371 10.6004 40.2424 10.6629 38.7565 10.8237C36.9296 11.0291 35.0853 11.2255 33.2848 11.5917C30.4265 12.1632 27.6033 12.8688 24.7625 13.5118C23.8797 13.7172 23.1455 13.3153 22.9008 12.4937C22.6648 11.6989 23.0319 10.8951 23.8972 10.6451C25.5929 10.145 27.2973 9.64484 29.028 9.30548C31.2569 8.86789 33.512 8.5196 35.7759 8.25168C37.7076 8.02842 39.6568 7.96591 41.6059 7.84981C42.3402 7.80516 42.3576 7.82302 42.6461 8.55532C42.8908 9.18939 43.1006 9.83238 43.3279 10.4843Z" fill="#402211"/>
<path d="M43.7125 13.11C43.7125 14.1013 43.7125 15.0122 43.7125 15.9588C42.7685 16.0928 41.8419 16.1731 40.9416 16.3518C38.3019 16.8787 35.6447 17.3788 33.0313 18.0218C30.9685 18.5308 28.9493 19.2542 26.904 19.8525C26.5282 19.9597 26.0999 20.0133 25.7065 19.9508C25.1471 19.8704 24.78 19.4774 24.6664 18.888C24.544 18.2629 24.745 17.736 25.2607 17.4324C25.7415 17.1466 26.2922 16.959 26.8166 16.7804C30.4003 15.5302 34.0627 14.5835 37.8037 13.9495C39.7529 13.628 41.7196 13.3958 43.7125 13.11Z" fill="#402211"/>
<path d="M103.219 17.1555C103.945 17.1555 104.662 17.1287 105.37 17.1644C106.121 17.2002 106.628 17.8253 106.637 18.7005C106.646 20.1294 106.637 21.5583 106.637 22.9871C106.637 25.2198 106.628 27.4524 106.646 29.685C106.646 30.078 106.541 30.2119 106.156 30.1851C105.544 30.1405 104.933 30.1762 104.329 30.1137C103.665 30.0423 103.184 29.5064 103.176 28.8188C103.167 24.9787 103.176 21.1385 103.176 17.3073C103.176 17.2627 103.193 17.2359 103.219 17.1555Z" fill="#402211"/>
<path d="M104.898 10.7969C106.148 10.7969 107.1 11.7792 107.092 13.0474C107.092 14.3066 106.113 15.28 104.863 15.28C103.621 15.28 102.651 14.2708 102.669 13.0206C102.695 11.7167 103.621 10.7969 104.898 10.7969Z" fill="#402211"/>
</svg>
