<svg width="20" height="17" viewBox="0 0 20 17" fill="none" xmlns="http://www.w3.org/2000/svg">
<path fill-rule="evenodd" clip-rule="evenodd" d="M20 1.92893C19.4332 2.75804 18.7479 3.46446 17.9442 4.04822C17.9526 4.16667 17.9569 4.34433 17.9569 4.58122C17.9569 5.68105 17.7961 6.77876 17.4746 7.87437C17.1531 8.96997 16.6646 10.0211 16.0089 11.0279C15.3532 12.0347 14.5728 12.9251 13.6675 13.6992C12.7623 14.4734 11.6709 15.0909 10.3934 15.552C9.1159 16.0131 7.74958 16.2437 6.29442 16.2437C4.00168 16.2437 1.90356 15.6303 0 14.4036C0.29611 14.4374 0.626056 14.4543 0.989848 14.4543C2.89341 14.4543 4.58967 13.8706 6.07868 12.703C5.19035 12.6861 4.3951 12.4133 3.69289 11.8845C2.99069 11.3558 2.50846 10.6811 2.24619 9.86041C2.52538 9.90271 2.78342 9.92386 3.0203 9.92386C3.3841 9.92386 3.74365 9.87733 4.09898 9.78426C3.15143 9.58968 2.36675 9.11802 1.74492 8.36929C1.12309 7.62055 0.812183 6.75127 0.812183 5.76142V5.71066C1.38748 6.03215 2.00507 6.20558 2.66497 6.23096C2.1066 5.85871 1.66244 5.37225 1.33249 4.77157C1.00254 4.17089 0.837563 3.51946 0.837563 2.81726C0.837563 2.07275 1.02369 1.38325 1.39594 0.748731C2.41963 2.00931 3.66539 3.01819 5.13325 3.77538C6.60111 4.53258 8.17258 4.95347 9.84772 5.03807C9.78003 4.71658 9.74619 4.40355 9.74619 4.09898C9.74619 2.96531 10.1459 1.99873 10.9454 1.19924C11.7449 0.399742 12.7115 0 13.8452 0C15.0296 0 16.0279 0.431468 16.8401 1.29442C17.7623 1.11675 18.6294 0.786804 19.4416 0.304569C19.1286 1.2775 18.5279 2.03045 17.6396 2.56345C18.4264 2.47885 19.2132 2.26735 20 1.92893Z" fill="#402211"/>
</svg>
