<svg width="23" height="28" viewBox="0 0 23 28" fill="none" xmlns="http://www.w3.org/2000/svg">
<path d="M22.6242 13.6676C22.3235 12.4386 21.3464 11.5448 20.1438 11.4331C17.2876 11.1352 14.3938 11.0979 11.5376 11.1352C8.64379 11.1352 5.78758 11.1352 2.93137 11.4331C1.72876 11.5821 0.714052 12.4759 0.45098 13.6676C0 15.4179 0 17.28 0 19.0676C0 20.8552 0 22.7172 0.413399 24.4676C0.714052 25.6966 1.69118 26.5904 2.89379 26.7021C5.75 27 8.64379 27.0372 11.5 27C14.3938 27 17.25 27 20.1062 26.7021C21.3088 26.5531 22.3235 25.6593 22.5866 24.4676C23 22.7545 23 20.8552 23 19.0676C23 17.28 23 15.4179 22.6242 13.6676ZM6.5768 15.0083H4.88562V23.7973H3.34477V15.0083H1.72876V13.5559H6.5768V15.0083ZM10.7484 23.7973H9.35784V22.9779C8.79412 23.611 8.26797 23.909 7.77941 23.909C7.32843 23.909 7.02778 23.7228 6.87745 23.3504C6.80229 23.0897 6.76471 22.7172 6.76471 22.1959V16.1628H8.15523V21.749C8.15523 22.0841 8.15523 22.2331 8.15523 22.2704C8.19281 22.4938 8.30556 22.6055 8.49346 22.6055C8.75654 22.6055 9.05719 22.3821 9.35784 21.9724V16.1628H10.7484V23.7973ZM16.0474 21.4883C16.0474 22.1959 16.0098 22.68 15.8971 23.0152C15.7092 23.5738 15.3333 23.8717 14.7696 23.8717C14.281 23.8717 13.7925 23.611 13.3415 23.0152V23.76H11.951V13.5931H13.3415V16.9448C13.7925 16.3862 14.281 16.1255 14.7696 16.1255C15.3333 16.1255 15.7092 16.4235 15.8971 16.9821C16.0098 17.28 16.0474 17.8014 16.0474 18.509V21.4883ZM21.3088 20.2221H18.5278V21.6C18.5278 22.3076 18.7533 22.6428 19.2418 22.6428C19.5801 22.6428 19.768 22.4566 19.8807 22.0841C19.8807 22.0097 19.9183 21.7117 19.9183 21.1531H21.3464V21.3393C21.3464 21.7862 21.3464 22.0841 21.3088 22.2331C21.2712 22.531 21.1585 22.829 20.9706 23.0524C20.5948 23.611 20.031 23.8717 19.2794 23.8717C18.5654 23.8717 18.0016 23.611 17.5882 23.0897C17.2876 22.7172 17.1373 22.1214 17.1373 21.3021V18.6207C17.1373 17.8014 17.2876 17.2055 17.5507 16.8331C17.9641 16.3117 18.4902 16.051 19.2042 16.051C19.9183 16.051 20.4444 16.3117 20.8578 16.8331C21.1585 17.2055 21.2712 17.8014 21.2712 18.6207L21.3088 20.2221Z" fill="#402211"/>
<path d="M19.2042 17.3172C18.7532 17.3172 18.4902 17.6524 18.4902 18.36V19.0676H19.9183V18.36C19.9183 17.6897 19.6928 17.3172 19.2042 17.3172Z" fill="#402211"/>
<path d="M14.0556 17.3172C13.8301 17.3172 13.6046 17.429 13.3791 17.6524V22.2703C13.6046 22.4938 13.8301 22.6055 14.0556 22.6055C14.469 22.6055 14.6569 22.2703 14.6569 21.5628V18.3228C14.6569 17.6897 14.469 17.3172 14.0556 17.3172Z" fill="#402211"/>
<path d="M14.8448 10.4276C15.3709 10.4276 15.8971 10.1297 16.4608 9.49656V10.3159H17.8513V2.64415H16.4608V8.52829C16.1601 8.97518 15.8595 9.19863 15.5588 9.19863C15.3709 9.19863 15.2582 9.08691 15.2206 8.86346C15.2206 8.82622 15.2206 8.64001 15.2206 8.30484V2.64415H13.8301V8.71449C13.8301 9.27311 13.8677 9.60829 13.9428 9.86898C14.0556 10.2414 14.3938 10.4276 14.8448 10.4276Z" fill="#402211"/>
<path d="M5.03594 6.14483V10.3159H6.57679V6.14483L8.45588 0H6.87745L5.82516 4.05931L4.73529 0H3.0817C3.41993 0.968276 3.75817 1.89931 4.0964 2.86759C4.58496 4.32 4.9232 5.4 5.03594 6.14483Z" fill="#402211"/>
<path d="M10.5604 10.4276C11.2745 10.4276 11.8006 10.1669 12.214 9.64553C12.5147 9.27311 12.665 8.64001 12.665 7.8207V5.13932C12.665 4.32001 12.5147 3.72415 12.214 3.31449C11.8382 2.79311 11.2745 2.53242 10.5604 2.53242C9.84639 2.53242 9.32025 2.79311 8.90685 3.31449C8.6062 3.68691 8.45587 4.32001 8.45587 5.13932V7.8207C8.45587 8.64001 8.6062 9.23587 8.90685 9.64553C9.32025 10.1669 9.88398 10.4276 10.5604 10.4276ZM9.88398 4.84139C9.88398 4.1338 10.1095 3.76139 10.5604 3.76139C11.0114 3.76139 11.2369 4.1338 11.2369 4.84139V8.08139C11.2369 8.78898 11.0114 9.16139 10.5604 9.16139C10.1095 9.16139 9.88398 8.78898 9.88398 8.08139V4.84139Z" fill="#402211"/>
</svg>
